<?xml version="1.0" encoding="utf-8"?>
<!-- Generator: Adobe Illustrator 16.0.0, SVG Export Plug-In . SVG Version: 6.00 Build 0)  -->
<!DOCTYPE svg PUBLIC "-//W3C//DTD SVG 1.1//EN" "http://www.w3.org/Graphics/SVG/1.1/DTD/svg11.dtd">
<svg version="1.1" id="Layer_1" xmlns="http://www.w3.org/2000/svg" xmlns:xlink="http://www.w3.org/1999/xlink" x="0px" y="0px"
	 width="1920px" height="1080px" viewBox="0 0 1920 1080" enable-background="new 0 0 1920 1080" xml:space="preserve">
<g>
	<radialGradient id="SVGID_1_" cx="988.3418" cy="532.5474" r="636.1313" gradientUnits="userSpaceOnUse">
		<stop  offset="0" style="stop-color:#7DC26D"/>
		<stop  offset="1" style="stop-color:#00ABC7"/>
	</radialGradient>
	<rect fill="url(#SVGID_1_)" width="1920.138" height="1080"/>
	<g>
		<path fill="#FFFFFF" d="M1824.203,1006.324c0,0.281-0.232,0.513-0.513,0.513h-2.047c-0.282,0-0.511-0.231-0.511-0.513v-2.042
			c0-0.282,0.229-0.512,0.511-0.512h2.047c0.28,0,0.513,0.229,0.513,0.512V1006.324z"/>
		<path fill="#FFFFFF" d="M1745.471,1019.803c0-5.285-3.065-9.528-8.397-9.528c-4.983,0-8.641,4.172-8.641,9.391
			c0,5.6,4.042,9.39,8.989,9.39c3.316,0,5.477-1.283,7.258-3.203c0.393-0.393,0.299-0.738,0.102-0.925l-0.797-0.755
			c-0.215-0.204-0.456-0.35-0.814,0.015c-1.463,1.53-3.207,2.538-5.677,2.538c-3.174,0-5.961-2.19-6.344-5.981h13.413
			C1745.369,1020.743,1745.471,1020.047,1745.471,1019.803 M1731.149,1018.587c0.383-3.479,2.752-6.052,5.854-6.052
			c3.553,0,5.435,2.782,5.748,6.052H1731.149z"/>
		<path fill="#FFFFFF" d="M1866.567,1019.803c0-5.285-3.064-9.528-8.396-9.528c-4.982,0-8.644,4.172-8.644,9.391
			c0,5.6,4.044,9.39,8.991,9.39c3.314,0,5.477-1.283,7.258-3.203c0.393-0.393,0.302-0.738,0.104-0.925l-0.797-0.755
			c-0.215-0.204-0.461-0.35-0.816,0.015c-1.463,1.53-3.205,2.538-5.68,2.538c-3.17,0-5.957-2.19-6.342-5.981h13.416
			C1866.469,1020.743,1866.567,1020.047,1866.567,1019.803 M1852.246,1018.587c0.385-3.479,2.752-6.052,5.857-6.052
			c3.552,0,5.432,2.782,5.745,6.052H1852.246z"/>
		<path fill="#FFFFFF" d="M1771.519,1003.248h-1.269c-0.391,0-0.71,0.293-0.71,0.65v24.104c0,0.355,0.319,0.648,0.71,0.648h1.269
			c0.387,0,0.707-0.293,0.707-0.648v-24.104C1772.226,1003.541,1771.905,1003.248,1771.519,1003.248"/>
		<path fill="#FFFFFF" d="M1814.646,1003.248h-1.267c-0.389,0-0.707,0.293-0.707,0.65v24.104c0,0.355,0.318,0.648,0.707,0.648h1.267
			c0.391,0,0.71-0.293,0.71-0.648v-24.104C1815.355,1003.541,1815.036,1003.248,1814.646,1003.248"/>
		<path fill="#FFFFFF" d="M1823.285,1010.656h-1.265c-0.392,0-0.711,0.293-0.711,0.651v16.694c0,0.357,0.319,0.649,0.711,0.649
			h1.265c0.39,0,0.707-0.292,0.707-0.649v-16.694C1823.992,1010.949,1823.675,1010.656,1823.285,1010.656"/>
		<path fill="#FFFFFF" d="M1723.625,1004.942c0-0.358-0.316-0.651-0.708-0.651h-1.338c-0.391,0-0.709,0.293-0.709,0.651
			c0,0.009,0.006,10.167,0.006,10.167h-14.077c0,0,0.005-10.158,0.005-10.167c0-0.358-0.318-0.651-0.708-0.651h-1.342
			c-0.39,0-0.708,0.293-0.708,0.651v23.051c0,0.358,0.318,0.651,0.708,0.651h1.342c0.39,0,0.708-0.293,0.708-0.651
			c0-0.036-0.005-10.311-0.005-10.311h14.077c0,0-0.006,10.274-0.006,10.311c0,0.358,0.318,0.651,0.709,0.651h1.338
			c0.392,0,0.708-0.293,0.708-0.651V1004.942z"/>
		<path fill="#FFFFFF" d="M1762.264,1012.362c-1.289-1.288-3.276-1.984-5.819-1.984c-2.263,0-4.442,0.587-6.136,1.284
			c0,0,0.419-0.168-0.006,0c-0.425,0.169-0.491,0.498-0.392,0.845l0.259,0.911c0.105,0.374,0.525,0.611,0.849,0.477
			c0,0,3.443-1.082,5.146-1.082c3.379,0,5.331,1.669,5.331,4.87v0.557c-1.604-0.452-3.204-0.766-5.506-0.766
			c-4.564,0-7.702,2.017-7.702,5.879v0.068c0,3.688,3.347,5.6,6.726,5.6c3.171,0,5.229-1.459,6.482-3.06v2.019
			c0,0.378,0.315,0.659,0.705,0.659h1.221c0.39,0,0.698-0.281,0.698-0.659l0.024-10.332
			C1764.145,1015.353,1763.517,1013.614,1762.264,1012.362 M1761.53,1022.03c0,2.851-2.683,4.834-5.991,4.834
			c-2.44,0-4.53-1.322-4.53-3.583v-0.069c0-2.157,1.916-3.616,5.261-3.616c2.194,0,3.938,0.382,5.261,0.766V1022.03z"/>
		<path fill="#FFFFFF" d="M1786.617,1013.021l0.009,0.002c0.356,0,0.649-0.318,0.649-0.707v-0.955c0-0.389-0.293-0.707-0.649-0.707
			l-0.009,0.002h-5.055l0.004-4.775c0-0.357-0.317-0.649-0.708-0.649h-1.266c-0.391,0-0.711,0.292-0.711,0.649h-0.003v4.775h-1.849
			l-0.009-0.002c-0.358,0-0.651,0.318-0.651,0.707v0.955c0,0.389,0.293,0.707,0.651,0.707l0.009-0.002h1.849v10.852
			c0,3.651,2.196,5.078,5.088,5.078c0.905,0,2.146-0.229,2.843-0.53l-0.002-0.01c0.269-0.087,0.468-0.349,0.468-0.667v-0.878
			c0-0.389-0.19-0.789-0.649-0.708c-0.338,0.063-1.479,0.357-2.033,0.357c-1.813,0-3.03-0.798-3.03-2.991v-10.503H1786.617z"/>
		<path fill="#FFFFFF" d="M1800.34,1010.274c-3.079,0-4.953,1.544-6.14,3.472v-9.841c0-0.355-0.32-0.648-0.708-0.648h-1.266
			c-0.392,0-0.709,0.293-0.709,0.648v24.104c0,0.357,0.317,0.65,0.709,0.65h1.266c0.388,0,0.708-0.293,0.708-0.65v-10.134
			c0.204-3.11,2.418-5.167,5.371-5.167c3.174,0,4.983,2.086,4.983,5.425v7.882v0.711v1.261c0,0.359,0.318,0.651,0.711,0.651h1.266
			c0.39,0,0.707-0.292,0.707-0.651v-1.261v-0.711v-8.542C1807.238,1013.196,1804.695,1010.274,1800.34,1010.274"/>
		<path fill="#FFFFFF" d="M1838.543,1010.274c-3.08,0-4.955,1.544-6.141,3.472v-2.438c0-0.359-0.315-0.651-0.707-0.651h-1.266
			c-0.393,0-0.71,0.292-0.71,0.651v16.702c0,0.357,0.317,0.65,0.71,0.65h1.266c0.392,0,0.707-0.293,0.707-0.65v-10.134
			c0.207-3.11,2.421-5.167,5.375-5.167c3.17,0,4.981,2.086,4.981,5.425v7.882v0.711v1.261c0,0.359,0.319,0.651,0.708,0.651h1.268
			c0.389,0,0.707-0.292,0.707-0.651v-1.261v-0.711v-8.542C1845.441,1013.196,1842.897,1010.274,1838.543,1010.274"/>
		<g opacity="0.3">
			<g>
				<defs>
					<rect id="SVGID_2_" x="1663.736" y="1004.902" width="22.803" height="22.716"/>
				</defs>
				<clipPath id="SVGID_3_">
					<use xlink:href="#SVGID_2_"  overflow="visible"/>
				</clipPath>
				<path clip-path="url(#SVGID_3_)" fill="#FFFFFF" d="M1668.508,1008.075c0,0.874-0.714,1.587-1.591,1.587h-1.589
					c-0.873,0-1.588-0.713-1.588-1.587v-1.585c0-0.874,0.715-1.587,1.588-1.587h1.589c0.877,0,1.591,0.713,1.591,1.587V1008.075z"/>
				<path clip-path="url(#SVGID_3_)" fill="#FFFFFF" d="M1686.542,1008.075c0,0.874-0.716,1.587-1.591,1.587h-1.587
					c-0.876,0-1.591-0.713-1.591-1.587v-1.585c0-0.874,0.715-1.587,1.591-1.587h1.587c0.875,0,1.591,0.713,1.591,1.587V1008.075z"/>
				<path clip-path="url(#SVGID_3_)" fill="#FFFFFF" d="M1668.508,1026.024c0,0.874-0.714,1.588-1.591,1.588h-1.589
					c-0.873,0-1.588-0.714-1.588-1.588v-1.585c0-0.872,0.715-1.587,1.588-1.587h1.589c0.877,0,1.591,0.715,1.591,1.587V1026.024z"/>
				<path clip-path="url(#SVGID_3_)" fill="#FFFFFF" d="M1686.542,1026.031c0,0.874-0.716,1.587-1.591,1.587h-1.587
					c-0.876,0-1.591-0.713-1.591-1.587v-1.585c0-0.873,0.715-1.587,1.591-1.587h1.587c0.875,0,1.591,0.714,1.591,1.587V1026.031z"/>
			</g>
		</g>
		<g opacity="0.3">
			<g>
				<defs>
					<rect id="SVGID_4_" x="1654.62" y="995.801" width="41.036" height="41.001"/>
				</defs>
				<clipPath id="SVGID_5_">
					<use xlink:href="#SVGID_4_"  overflow="visible"/>
				</clipPath>
				<path clip-path="url(#SVGID_5_)" fill="#FFFFFF" d="M1677.79,999.33c0,0.973-0.796,1.766-1.77,1.766h-1.767
					c-0.973,0-1.769-0.793-1.769-1.766v-1.764c0-0.972,0.796-1.766,1.769-1.766h1.767c0.974,0,1.77,0.794,1.77,1.766V999.33z"/>
				<path clip-path="url(#SVGID_5_)" fill="#FFFFFF" d="M1659.926,1017.161c0,0.973-0.796,1.766-1.771,1.766h-1.765
					c-0.975,0-1.771-0.793-1.771-1.766v-1.764c0-0.972,0.796-1.766,1.771-1.766h1.765c0.975,0,1.771,0.794,1.771,1.766V1017.161z"/>
				<path clip-path="url(#SVGID_5_)" fill="#FFFFFF" d="M1695.653,1017.161c0,0.973-0.796,1.766-1.77,1.766h-1.766
					c-0.974,0-1.771-0.793-1.771-1.766v-1.764c0-0.972,0.797-1.766,1.771-1.766h1.766c0.974,0,1.77,0.794,1.77,1.766V1017.161z"/>
				<path clip-path="url(#SVGID_5_)" fill="#FFFFFF" d="M1677.79,1035.037c0,0.972-0.796,1.765-1.77,1.765h-1.767
					c-0.973,0-1.769-0.793-1.769-1.765v-1.765c0-0.972,0.796-1.766,1.769-1.766h1.767c0.974,0,1.77,0.794,1.77,1.766V1035.037z"/>
			</g>
		</g>
		<g opacity="0.3">
			<g>
				<defs>
					<rect id="SVGID_6_" x="1655.764" y="996.938" width="38.75" height="38.682"/>
				</defs>
				<clipPath id="SVGID_7_">
					<use xlink:href="#SVGID_6_"  overflow="visible"/>
				</clipPath>
				<path clip-path="url(#SVGID_7_)" fill="#FFFFFF" d="M1667.354,998.174c0,0.679-0.557,1.236-1.236,1.236
					c-0.683,0-1.239-0.558-1.239-1.236s0.557-1.236,1.239-1.236C1666.798,996.938,1667.354,997.495,1667.354,998.174"/>
				<path clip-path="url(#SVGID_7_)" fill="#FFFFFF" d="M1685.395,998.174c0,0.679-0.559,1.236-1.238,1.236
					s-1.237-0.558-1.237-1.236s0.558-1.236,1.237-1.236S1685.395,997.495,1685.395,998.174"/>
				<path clip-path="url(#SVGID_7_)" fill="#FFFFFF" d="M1658.236,1007.275c0,0.68-0.559,1.235-1.239,1.235
					c-0.679,0-1.236-0.556-1.236-1.235c0-0.679,0.558-1.235,1.236-1.235C1657.678,1006.04,1658.236,1006.597,1658.236,1007.275"/>
				<path clip-path="url(#SVGID_7_)" fill="#FFFFFF" d="M1694.515,1007.178c0,0.68-0.559,1.235-1.24,1.235
					c-0.679,0-1.236-0.556-1.236-1.235c0-0.679,0.558-1.235,1.236-1.235C1693.956,1005.942,1694.515,1006.499,1694.515,1007.178"/>
				<path clip-path="url(#SVGID_7_)" fill="#FFFFFF" d="M1658.236,1025.315c0,0.679-0.559,1.235-1.239,1.235
					c-0.679,0-1.236-0.557-1.236-1.235s0.558-1.235,1.236-1.235C1657.678,1024.08,1658.236,1024.637,1658.236,1025.315"/>
				<path clip-path="url(#SVGID_7_)" fill="#FFFFFF" d="M1694.515,1025.381c0,0.679-0.559,1.235-1.24,1.235
					c-0.679,0-1.236-0.557-1.236-1.235s0.558-1.236,1.236-1.236C1693.956,1024.145,1694.515,1024.702,1694.515,1025.381"/>
				<path clip-path="url(#SVGID_7_)" fill="#FFFFFF" d="M1667.257,1034.385c0,0.679-0.559,1.235-1.238,1.235
					c-0.681,0-1.238-0.557-1.238-1.235c0-0.68,0.558-1.236,1.238-1.236C1666.698,1033.148,1667.257,1033.705,1667.257,1034.385"/>
				<path clip-path="url(#SVGID_7_)" fill="#FFFFFF" d="M1685.492,1034.385c0,0.679-0.557,1.235-1.238,1.235
					c-0.68,0-1.236-0.557-1.236-1.235c0-0.68,0.557-1.236,1.236-1.236C1684.936,1033.148,1685.492,1033.705,1685.492,1034.385"/>
			</g>
		</g>
		<path fill="#FFFFFF" d="M1679.364,1019.088c0,0.773-0.634,1.406-1.408,1.406h-5.636c-0.777,0-1.411-0.633-1.411-1.406v-5.627
			c0-0.774,0.634-1.407,1.411-1.407h5.636c0.774,0,1.408,0.633,1.408,1.407V1019.088z"/>
		<g opacity="0.8">
			<g>
				<defs>
					<rect id="SVGID_8_" x="1662.806" y="1003.969" width="24.645" height="24.621"/>
				</defs>
				<clipPath id="SVGID_9_">
					<use xlink:href="#SVGID_8_"  overflow="visible"/>
				</clipPath>
				<path clip-path="url(#SVGID_9_)" fill="#FFFFFF" d="M1678.353,1008.802c0,0.872-0.716,1.586-1.588,1.586h-3.255
					c-0.872,0-1.588-0.714-1.588-1.586v-3.247c0-0.871,0.716-1.586,1.588-1.586h3.255c0.872,0,1.588,0.715,1.588,1.586V1008.802z"/>
				<path clip-path="url(#SVGID_9_)" fill="#FFFFFF" d="M1669.239,1014.65c0-0.871-0.715-1.585-1.588-1.585h-3.254
					c-0.872,0-1.588,0.714-1.588,1.585v3.248c0,0.87,0.716,1.585,1.588,1.585h3.254c0.873,0,1.588-0.715,1.588-1.585V1014.65z"/>
				<path clip-path="url(#SVGID_9_)" fill="#FFFFFF" d="M1687.449,1014.655c0-0.871-0.714-1.585-1.587-1.585h-3.255
					c-0.871,0-1.587,0.714-1.587,1.585v3.248c0,0.871,0.716,1.585,1.587,1.585h3.255c0.873,0,1.587-0.714,1.587-1.585V1014.655z"/>
				<path clip-path="url(#SVGID_9_)" fill="#FFFFFF" d="M1678.353,1023.757c0-0.871-0.716-1.586-1.588-1.586h-3.255
					c-0.872,0-1.588,0.715-1.588,1.586v3.247c0,0.872,0.716,1.586,1.588,1.586h3.255c0.872,0,1.588-0.714,1.588-1.586V1023.757z"/>
			</g>
		</g>
		<path fill="#FFFFFF" d="M1868.175,1010.797v-0.011c0-1.061,0.86-1.953,1.945-1.953c1.097,0,1.948,0.882,1.948,1.941v0.012
			c0,1.061-0.862,1.953-1.948,1.953C1869.024,1012.739,1868.175,1011.857,1868.175,1010.797 M1871.843,1010.786v-0.012
			c0-0.948-0.736-1.73-1.723-1.73c-0.974,0-1.722,0.793-1.722,1.742v0.011c0,0.949,0.736,1.729,1.722,1.729
			C1871.094,1012.526,1871.843,1011.734,1871.843,1010.786 M1869.36,1009.758h0.895c0.437,0,0.762,0.213,0.762,0.626
			c0,0.323-0.19,0.525-0.46,0.603l0.526,0.748h-0.46l-0.468-0.68h-0.414v0.68h-0.381V1009.758z M1870.222,1010.742
			c0.257,0,0.401-0.136,0.401-0.324c0-0.212-0.145-0.324-0.401-0.324h-0.48v0.648H1870.222z"/>
	</g>
</g>
</svg>
