<?xml version="1.0" encoding="utf-8"?>
<!-- Generator: Adobe Illustrator 16.0.0, SVG Export Plug-In . SVG Version: 6.00 Build 0)  -->
<!DOCTYPE svg PUBLIC "-//W3C//DTD SVG 1.1//EN" "http://www.w3.org/Graphics/SVG/1.1/DTD/svg11.dtd">
<svg version="1.1" id="Layer_1" xmlns="http://www.w3.org/2000/svg" xmlns:xlink="http://www.w3.org/1999/xlink" x="0px" y="0px"
	 width="1920px" height="1080px" viewBox="0 0 1920 1080" enable-background="new 0 0 1920 1080" xml:space="preserve">
<g>
	<g>
		<defs>
			<rect id="SVGID_1_" width="1923.5" height="1080"/>
		</defs>
		<clipPath id="SVGID_2_">
			<use xlink:href="#SVGID_1_"  overflow="visible"/>
		</clipPath>
		<g opacity="0.15" clip-path="url(#SVGID_2_)">
			<g>
				<defs>
					<rect id="SVGID_3_" x="200.668" y="-37.67" width="1506.438" height="1205.431"/>
				</defs>
				<clipPath id="SVGID_4_">
					<use xlink:href="#SVGID_3_"  overflow="visible"/>
				</clipPath>
				<g opacity="0.3" clip-path="url(#SVGID_4_)">
					<g>
						<defs>
							<rect id="SVGID_5_" x="535.2" y="299.491" width="837.138" height="833.97"/>
						</defs>
						<clipPath id="SVGID_6_">
							<use xlink:href="#SVGID_5_"  overflow="visible"/>
						</clipPath>
						<path clip-path="url(#SVGID_6_)" fill="#FFFFFF" d="M1197.284,1016.994c0-32.076,26.254-58.269,58.396-58.269h58.266
							c32.143,0,58.393,26.192,58.393,58.269v58.203c0,32.063-26.25,58.264-58.393,58.264h-58.266
							c-32.143,0-58.396-26.201-58.396-58.264V1016.994z"/>
						<path clip-path="url(#SVGID_6_)" fill="#FFFFFF" d="M535.2,1016.994c0-32.076,26.256-58.269,58.397-58.269h58.266
							c32.142,0,58.398,26.192,58.398,58.269v58.203c0,32.063-26.256,58.264-58.398,58.264h-58.266
							c-32.141,0-58.397-26.201-58.397-58.264V1016.994z"/>
						<path clip-path="url(#SVGID_6_)" fill="#FFFFFF" d="M1197.284,357.989c0-32.083,26.254-58.268,58.396-58.268h58.266
							c32.143,0,58.393,26.185,58.393,58.268v58.203c0,32.056-26.25,58.264-58.393,58.264h-58.266
							c-32.143,0-58.396-26.208-58.396-58.264V357.989z"/>
						<path clip-path="url(#SVGID_6_)" fill="#FFFFFF" d="M535.2,357.759c0-32.083,26.256-58.268,58.397-58.268h58.266
							c32.142,0,58.398,26.185,58.398,58.268v58.203c0,32.056-26.256,58.264-58.398,58.264h-58.266
							c-32.141,0-58.397-26.208-58.397-58.264V357.759z"/>
					</g>
				</g>
				<g opacity="0.3" clip-path="url(#SVGID_4_)">
					<g>
						<defs>
							<rect id="SVGID_7_" x="200.668" y="-37.67" width="1506.438" height="850.655"/>
						</defs>
						<clipPath id="SVGID_8_">
							<use xlink:href="#SVGID_7_"  overflow="visible"/>
						</clipPath>
						<path clip-path="url(#SVGID_8_)" fill="#FFFFFF" d="M1512.35,683.399c0-35.69,29.207-64.803,64.967-64.803h64.826
							c35.759,0,64.964,29.112,64.964,64.803v64.756c0,35.693-29.205,64.829-64.964,64.829h-64.826
							c-35.76,0-64.967-29.136-64.967-64.829V683.399z"/>
						<path clip-path="url(#SVGID_8_)" fill="#FFFFFF" d="M200.668,683.399c0-35.69,29.207-64.803,64.966-64.803h64.826
							c35.759,0,64.965,29.112,64.965,64.803v64.756c0,35.693-29.207,64.829-64.965,64.829h-64.826
							c-35.759,0-64.966-29.136-64.966-64.829V683.399z"/>
						<path clip-path="url(#SVGID_8_)" fill="#FFFFFF" d="M856.505,27.133c0-35.687,29.209-64.799,64.968-64.799h64.83
							c35.752,0,64.968,29.112,64.968,64.799v64.762c0,35.691-29.216,64.826-64.968,64.826h-64.83
							c-35.759,0-64.968-29.135-64.968-64.826V27.133z"/>
					</g>
				</g>
				<g opacity="0.3" clip-path="url(#SVGID_4_)">
					<g>
						<defs>
							<rect id="SVGID_9_" x="242.497" y="5.71" width="1422.782" height="1089.58"/>
						</defs>
						<clipPath id="SVGID_10_">
							<use xlink:href="#SVGID_9_"  overflow="visible"/>
						</clipPath>
						<path clip-path="url(#SVGID_10_)" fill="#FFFFFF" d="M1574.377,1046.339c0-24.912,20.467-45.346,45.444-45.346
							c24.981,0,45.456,20.434,45.456,45.346c0,24.933-20.475,45.367-45.456,45.367
							C1594.844,1091.706,1574.377,1071.271,1574.377,1046.339"/>
						<path clip-path="url(#SVGID_10_)" fill="#FFFFFF" d="M242.497,1049.92c0-24.912,20.471-45.347,45.45-45.347
							c24.978,0,45.453,20.435,45.453,45.347c0,24.932-20.475,45.37-45.453,45.37C262.968,1095.29,242.497,1074.852,242.497,1049.92
							"/>
						<path clip-path="url(#SVGID_10_)" fill="#FFFFFF" d="M1574.377,384.028c0-24.912,20.467-45.343,45.444-45.343
							c24.981,0,45.456,20.431,45.456,45.343c0,24.932-20.475,45.367-45.456,45.367
							C1594.844,429.395,1574.377,408.96,1574.377,384.028"/>
						<path clip-path="url(#SVGID_10_)" fill="#FFFFFF" d="M242.497,381.632c0-24.915,20.471-45.343,45.45-45.343
							c24.978,0,45.453,20.428,45.453,45.343c0,24.932-20.475,45.367-45.453,45.367
							C262.968,426.999,242.497,406.564,242.497,381.632"/>
						<path clip-path="url(#SVGID_10_)" fill="#FFFFFF" d="M1243.223,51.077c0-24.915,20.471-45.367,45.448-45.367
							s45.449,20.452,45.449,45.367c0,24.939-20.472,45.367-45.449,45.367S1243.223,76.016,1243.223,51.077"/>
						<path clip-path="url(#SVGID_10_)" fill="#FFFFFF" d="M573.686,51.077c0-24.915,20.475-45.367,45.453-45.367
							c24.975,0,45.448,20.452,45.448,45.367c0,24.939-20.474,45.367-45.448,45.367C594.161,96.444,573.686,76.016,573.686,51.077"
							/>
					</g>
				</g>
				<path clip-path="url(#SVGID_4_)" fill="#FFFFFF" d="M798.663,612.682c0-28.425,23.286-51.651,51.77-51.651h206.89
					c28.505,0,51.783,23.227,51.783,51.651v206.574c0,28.432-23.278,51.672-51.783,51.672h-206.89
					c-28.484,0-51.77-23.24-51.77-51.672V612.682z"/>
				<g opacity="0.8" clip-path="url(#SVGID_4_)">
					<g>
						<defs>
							<rect id="SVGID_11_" x="501.855" y="263.818" width="904.594" height="903.943"/>
						</defs>
						<clipPath id="SVGID_12_">
							<use xlink:href="#SVGID_11_"  overflow="visible"/>
						</clipPath>
						<path clip-path="url(#SVGID_12_)" fill="#FFFFFF" d="M835.854,990.322c0-32.005,26.243-58.22,58.301-58.22h119.463
							c32.035,0,58.305,26.215,58.305,58.22v119.222c0,31.982-26.27,58.217-58.305,58.217H894.155
							c-32.059,0-58.301-26.234-58.301-58.217V990.322z"/>
						<path clip-path="url(#SVGID_12_)" fill="#FFFFFF" d="M1170.399,775.602c0,31.965,26.248,58.196,58.301,58.196h119.446
							c32.061,0,58.304-26.231,58.304-58.196V656.355c0-31.981-26.243-58.199-58.304-58.199H1228.7
							c-32.053,0-58.301,26.218-58.301,58.199V775.602z"/>
						<path clip-path="url(#SVGID_12_)" fill="#FFFFFF" d="M501.855,775.409c0,31.965,26.246,58.195,58.305,58.195h119.44
							c32.057,0,58.302-26.23,58.302-58.195V656.167c0-31.982-26.246-58.204-58.302-58.204H560.16
							c-32.06,0-58.305,26.222-58.305,58.204V775.409z"/>
						<path clip-path="url(#SVGID_12_)" fill="#FFFFFF" d="M835.854,441.253c0,31.985,26.243,58.224,58.301,58.224h119.463
							c32.035,0,58.305-26.239,58.305-58.224V322.031c0-31.999-26.27-58.214-58.305-58.214H894.155
							c-32.059,0-58.301,26.215-58.301,58.214V441.253z"/>
					</g>
				</g>
			</g>
		</g>
	</g>
</g>
</svg>
